<svg width="19" height="14" viewBox="0 0 19 14" fill="none" xmlns="http://www.w3.org/2000/svg">
<path d="M9.79948 4.63525C9.13644 4.63525 8.50055 4.89865 8.03171 5.36749C7.56287 5.83633 7.29948 6.47221 7.29948 7.13525C7.29948 7.7983 7.56287 8.43418 8.03171 8.90302C8.50055 9.37186 9.13644 9.63525 9.79948 9.63525C10.4625 9.63525 11.0984 9.37186 11.5672 8.90302C12.0361 8.43418 12.2995 7.7983 12.2995 7.13525C12.2995 6.47221 12.0361 5.83633 11.5672 5.36749C11.0984 4.89865 10.4625 4.63525 9.79948 4.63525ZM9.79948 11.3019C8.69441 11.3019 7.6346 10.8629 6.8532 10.0815C6.0718 9.30013 5.63281 8.24032 5.63281 7.13525C5.63281 6.03019 6.0718 4.97038 6.8532 4.18898C7.6346 3.40757 8.69441 2.96859 9.79948 2.96859C10.9045 2.96859 11.9644 3.40757 12.7458 4.18898C13.5272 4.97038 13.9661 6.03019 13.9661 7.13525C13.9661 8.24032 13.5272 9.30013 12.7458 10.0815C11.9644 10.8629 10.9045 11.3019 9.79948 11.3019ZM9.79948 0.885254C5.63281 0.885254 2.07448 3.47692 0.632812 7.13525C2.07448 10.7936 5.63281 13.3853 9.79948 13.3853C13.9661 13.3853 17.5245 10.7936 18.9661 7.13525C17.5245 3.47692 13.9661 0.885254 9.79948 0.885254Z" fill="#D7D8D9"/>
</svg>
