<svg width="19" height="14" viewBox="0 0 19 14" fill="none" xmlns="http://www.w3.org/2000/svg">
<path d="M9.83659 4.63867C9.17355 4.63867 8.53766 4.90206 8.06882 5.3709C7.59998 5.83975 7.33659 6.47563 7.33659 7.13867C7.33659 7.80171 7.59998 8.4376 8.06882 8.90644C8.53766 9.37528 9.17355 9.63867 9.83659 9.63867C10.4996 9.63867 11.1355 9.37528 11.6044 8.90644C12.0732 8.4376 12.3366 7.80171 12.3366 7.13867C12.3366 6.47563 12.0732 5.83975 11.6044 5.3709C11.1355 4.90206 10.4996 4.63867 9.83659 4.63867ZM9.83659 11.3053C8.73152 11.3053 7.67171 10.8664 6.89031 10.0849C6.10891 9.30355 5.66992 8.24374 5.66992 7.13867C5.66992 6.0336 6.10891 4.97379 6.89031 4.19239C7.67171 3.41099 8.73152 2.97201 9.83659 2.97201C10.9417 2.97201 12.0015 3.41099 12.7829 4.19239C13.5643 4.97379 14.0033 6.0336 14.0033 7.13867C14.0033 8.24374 13.5643 9.30355 12.7829 10.0849C12.0015 10.8664 10.9417 11.3053 9.83659 11.3053ZM9.83659 0.888672C5.66992 0.888672 2.11159 3.48034 0.669922 7.13867C2.11159 10.797 5.66992 13.3887 9.83659 13.3887C14.0033 13.3887 17.5616 10.797 19.0033 7.13867C17.5616 3.48034 14.0033 0.888672 9.83659 0.888672Z" fill="#ADCBCB"/>
</svg>
