<svg width="15" height="15" viewBox="0 0 15 15" fill="none" xmlns="http://www.w3.org/2000/svg">
<path d="M12.6527 2.61773C11.2592 1.2179 9.34513 0.45133 7.36395 0.501324C3.41838 0.617977 0.329077 3.86758 0.446604 7.78377C0.463394 8.60034 0.631291 9.40024 0.933505 10.1502C1.18535 10.7834 1.52114 11.3667 1.94089 11.8999L1.35325 13.2831C1.11819 13.8164 1.37004 14.433 1.90731 14.6663C2.09199 14.7496 2.31026 14.7663 2.51173 14.7329L5.23166 14.2663C6.20546 14.5996 7.22964 14.7163 8.25381 14.6163C11.7628 14.2663 14.4996 11.4167 14.6843 7.91709C14.785 5.934 14.0462 4.01756 12.6527 2.61773ZM7.04495 10.4001H5.18129C4.89587 10.4001 4.64402 10.1668 4.64402 9.86685C4.64402 9.58356 4.87908 9.33359 5.18129 9.33359H7.04495C7.33037 9.33359 7.58222 9.56689 7.58222 9.86685C7.58222 10.1668 7.34716 10.4001 7.04495 10.4001ZM9.94956 8.23372H5.18129C4.89587 8.23372 4.64402 8.00041 4.64402 7.70045C4.64402 7.40049 4.87908 7.16718 5.18129 7.16718H9.94956C10.235 7.16718 10.4868 7.40049 10.4868 7.70045C10.4868 8.00041 10.235 8.23372 9.94956 8.23372ZM9.94956 6.05065H5.18129C4.89587 6.05065 4.64402 5.81735 4.64402 5.51738C4.64402 5.23408 4.87908 4.98411 5.18129 4.98411H9.94956C10.235 4.98411 10.4868 5.21742 10.4868 5.51738C10.4868 5.80068 10.235 6.05065 9.94956 6.05065Z" fill="#ADCBCB"/>
</svg>
