<svg width="30" height="31" viewBox="0 0 30 31" fill="none" xmlns="http://www.w3.org/2000/svg">
<path d="M23.9596 13.5011V11.7153H1.70284V16.1798C1.70284 20.317 3.78481 24.0052 6.90127 26.0612H18.7044C19.4698 25.5563 20.2277 24.9544 20.8527 24.2754H23.1079C26.3948 24.2754 29.0696 21.4712 29.0696 18.0251V13.5011H23.9596ZM27.3663 18.0251C27.3663 20.4867 25.4559 22.4896 23.1079 22.4896H22.181C23.2946 20.6831 23.9596 18.4872 23.9596 16.1798V15.2869H27.3663V18.0251Z" fill="#4D4D61"/>
<path d="M9.08789 0.940918L8.14306 2.42677C8.48156 2.66309 8.67534 3.04323 8.67534 3.46968C8.67534 3.89613 8.48156 4.27627 8.14306 4.51259C7.33466 5.07762 6.85228 6.02284 6.85228 7.04129C6.85228 8.05973 7.33466 9.00496 8.14306 9.56999L9.08783 8.08414C8.74933 7.84782 8.55554 7.46768 8.55554 7.04123C8.55554 6.61478 8.74933 6.23464 9.08783 5.99832C9.89629 5.43335 10.3787 4.48812 10.3787 3.46962C10.3787 2.45117 9.89629 1.50595 9.08789 0.940918Z" fill="#4D4D61"/>
<path d="M13.3462 0.940918L12.4014 2.42677C12.7399 2.66309 12.9337 3.04323 12.9337 3.46968C12.9337 3.89613 12.7399 4.27627 12.4014 4.51259C11.593 5.07762 11.1106 6.02284 11.1106 7.04129C11.1106 8.05973 11.593 9.00496 12.4014 9.56999L13.3461 8.08414C13.0076 7.84782 12.8139 7.46768 12.8139 7.04123C12.8139 6.61478 13.0076 6.23464 13.3461 5.99832C14.1546 5.43335 14.637 4.48812 14.637 3.46962C14.637 2.45117 14.1546 1.50595 13.3462 0.940918Z" fill="#4D4D61"/>
<path d="M17.6045 0.940918L16.6597 2.42677C16.9982 2.66309 17.192 3.04323 17.192 3.46968C17.192 3.89613 16.9982 4.27627 16.6597 4.51259C15.8513 5.07762 15.3689 6.02284 15.3689 7.04129C15.3689 8.05973 15.8513 9.00496 16.6597 9.56999L17.6045 8.08414C17.2659 7.84782 17.0722 7.46768 17.0722 7.04123C17.0722 6.61478 17.2659 6.23464 17.6045 5.99832C18.4129 5.43335 18.8953 4.48812 18.8953 3.46962C18.8953 2.45117 18.4129 1.50595 17.6045 0.940918Z" fill="#4D4D61"/>
<path d="M-0.000488281 27.2251C-0.000488281 29.1976 1.52472 30.7967 3.40616 30.7967H22.2563C24.1377 30.7967 25.6629 29.1976 25.6629 27.2251H-0.000488281Z" fill="#4D4D61"/>
</svg>
