<svg width="20" height="21" viewBox="0 0 20 21" fill="none" xmlns="http://www.w3.org/2000/svg">
<path fill-rule="evenodd" clip-rule="evenodd" d="M10.7018 13.5402C11.1778 13.4721 11.4038 13.3189 11.7429 13.119L11.8884 13.4622C11.9398 13.5885 11.969 13.6357 12.0377 13.7472C12.3962 14.3271 12.7662 14.7137 13.3108 15.1371L15.3129 16.7136C14.9246 17.5016 12.1864 18.7652 10.7294 18.6927C10.8819 16.8476 11.393 15.2052 10.7018 13.5402ZM10.3411 1.68213C15.4968 1.68213 19.6763 5.9264 19.6763 11.1613C19.6763 16.3962 15.4968 20.6399 10.3411 20.6399C5.18538 20.6399 1.00586 16.3962 1.00586 11.1613C1.00586 5.9264 5.18538 1.68213 10.3411 1.68213ZM6.64562 11.8724C6.99607 11.8543 7.18374 11.8389 7.32273 11.7302C7.61208 11.7461 7.74891 11.5984 7.99012 11.5078C8.0323 11.9296 8.21672 12.2794 8.39682 12.5704C8.18752 12.7253 8.02527 12.667 7.28001 13.2376C7.05178 13.4117 7.00851 13.5188 6.81598 13.6956L4.85493 16.1952C4.47365 15.9937 3.76517 14.7823 3.53153 14.231C3.16755 13.3732 2.95717 12.5803 2.89714 11.5474C4.19999 11.6067 5.33681 11.9043 6.64562 11.8724ZM9.46874 10.9834C9.73212 10.0603 10.8479 10.0279 11.1561 10.8099C11.3297 11.2519 11.134 11.6918 10.8495 11.8829C10.1421 12.3595 9.45035 11.8033 9.46874 10.9834ZM13.1437 10.6023L12.7175 10.7764L12.5114 10.1613L12.2875 9.72478C12.744 9.38431 13.055 9.62977 14.2675 8.13063L15.8251 6.10212C16.2188 6.29213 16.9165 7.50736 17.1517 8.06254C17.5098 8.90546 17.7261 9.72368 17.7845 10.7429C16.7191 10.728 13.9354 10.113 13.1437 10.6023ZM14.7072 11.8757C14.9928 11.8648 15.5055 11.8741 15.7137 11.7291L17.7851 11.5485C17.7337 12.5435 17.5011 13.4128 17.1523 14.2315C16.9192 14.7774 16.2042 16.0041 15.8246 16.1941C15.744 16.0217 15.5628 15.8246 15.4346 15.6615L13.8532 13.6544C13.7651 13.5682 13.7207 13.5418 13.6304 13.4441C13.1961 12.9773 12.8852 12.857 12.3546 12.6083L12.2865 12.5704C12.4806 12.2184 12.6256 11.9971 12.6964 11.5117C12.9014 11.5902 12.8349 11.6193 13.0279 11.6226C13.0777 11.6682 13.0539 11.6572 13.135 11.6995C13.4487 11.8626 14.2183 11.8944 14.545 11.8801L14.7072 11.8757ZM5.37088 16.7153C5.55152 16.6296 5.73594 16.4462 5.88954 16.3122C6.90738 15.4276 7.97173 14.8691 8.66561 13.7137C8.76837 13.5424 8.83327 13.2727 8.94035 13.1217C9.3649 13.3529 9.43954 13.371 9.96143 13.555C9.83109 13.9734 9.70076 14.1569 9.64397 14.7054C9.52012 15.9086 9.88842 17.338 9.95008 18.6927C8.49146 18.7597 5.75271 17.5126 5.37088 16.7153ZM2.91336 10.7511C2.81385 9.31567 4.08534 6.48707 4.85926 6.10048L6.41468 8.13063C6.67158 8.44968 6.97931 8.81925 7.27947 9.05812C8.02094 9.64899 8.15777 9.54905 8.3979 9.72478C8.21834 10.074 8.03717 10.2964 7.99174 10.7863C6.3579 10.0488 4.71702 10.6325 2.91336 10.7511ZM10.7332 3.58818C11.7602 3.65792 12.5271 3.85781 13.3778 4.23287C13.923 4.47339 15.1193 5.17628 15.3086 5.5755L12.8257 7.59632C12.671 7.77479 12.5406 7.84069 12.3984 8.03783C11.8094 8.85 11.896 8.95434 11.7429 9.17564C11.3184 8.93292 11.2394 8.92304 10.7208 8.74017C10.8403 8.32613 10.9825 8.14656 11.0404 7.58479C11.1594 6.42227 10.8035 4.93301 10.7332 3.58818ZM5.3671 5.57935C5.57261 5.18726 6.75432 4.46954 7.30326 4.23396C8.16643 3.86385 8.90574 3.65517 9.94954 3.58873C9.87923 4.94564 9.51363 6.45192 9.6483 7.63257C9.70995 8.17292 9.83921 8.34205 9.96306 8.74017C9.10044 9.0444 9.74673 8.76269 8.94035 9.17289C8.75701 8.91205 8.85382 8.76873 8.28703 8.03563C8.14642 7.85387 8.0085 7.75667 7.83977 7.56008L5.86196 5.9566C5.69863 5.81548 5.54774 5.66556 5.3671 5.57935Z" fill="white"/>
<path d="M10.1099 0.743164C12.8405 0.743164 15.3132 1.86725 17.1033 3.68434C18.8929 5.50143 20 8.01263 20 10.7852C20 13.5578 18.8929 16.069 17.1033 17.8861C15.3132 19.7032 12.8405 20.8273 10.1099 20.8273C7.37921 20.8273 4.906 19.7032 3.1164 17.8861C1.3268 16.069 0.219727 13.5578 0.219727 10.7852C0.219727 8.01263 1.3268 5.50143 3.1164 3.68434C4.906 1.86725 7.37921 0.743164 10.1099 0.743164ZM14.8145 6.00828C13.6106 4.7859 11.947 4.02974 10.1099 4.02974C8.27212 4.02974 6.60853 4.7859 5.40519 6.00828C4.2013 7.23011 3.45658 8.9198 3.45658 10.7852C3.45658 12.6506 4.2013 14.3398 5.40519 15.5621C6.60853 16.7845 8.27212 17.5407 10.1099 17.5407C11.947 17.5407 13.6106 16.7845 14.8145 15.5621C16.0184 14.3398 16.7631 12.6506 16.7631 10.7852C16.7631 8.9198 16.0184 7.23011 14.8145 6.00828Z" fill="white"/>
</svg>
