<svg width="19" height="19" viewBox="0 0 19 19" fill="none" xmlns="http://www.w3.org/2000/svg">
<path d="M9.20801 2.20972C11.2458 2.20972 11.5 2.21722 12.2995 2.25472C13.0983 2.29222 13.642 2.41747 14.1205 2.60347C14.6155 2.79397 15.0325 3.05197 15.4495 3.46822C15.8309 3.84314 16.126 4.29666 16.3143 4.79722C16.4995 5.27497 16.6255 5.81947 16.663 6.61822C16.6983 7.41772 16.708 7.67197 16.708 9.70972C16.708 11.7475 16.7005 12.0017 16.663 12.8012C16.6255 13.6 16.4995 14.1437 16.3143 14.6222C16.1265 15.123 15.8313 15.5767 15.4495 15.9512C15.0745 16.3325 14.621 16.6275 14.1205 16.816C13.6428 17.0012 13.0983 17.1272 12.2995 17.1647C11.5 17.2 11.2458 17.2097 9.20801 17.2097C7.17026 17.2097 6.91601 17.2022 6.11651 17.1647C5.31776 17.1272 4.77401 17.0012 4.29551 16.816C3.79475 16.6281 3.34115 16.3329 2.96651 15.9512C2.58506 15.5764 2.28996 15.1228 2.10176 14.6222C1.91576 14.1445 1.79051 13.6 1.75301 12.8012C1.71776 12.0017 1.70801 11.7475 1.70801 9.70972C1.70801 7.67197 1.71551 7.41772 1.75301 6.61822C1.79051 5.81872 1.91576 5.27572 2.10176 4.79722C2.28943 4.29635 2.58461 3.84271 2.96651 3.46822C3.34126 3.08664 3.79483 2.79151 4.29551 2.60347C4.77401 2.41747 5.31701 2.29222 6.11651 2.25472C6.91601 2.21947 7.17026 2.20972 9.20801 2.20972ZM9.20801 5.95972C8.21345 5.95972 7.25962 6.3548 6.55636 7.05807C5.8531 7.76133 5.45801 8.71516 5.45801 9.70972C5.45801 10.7043 5.8531 11.6581 6.55636 12.3614C7.25962 13.0646 8.21345 13.4597 9.20801 13.4597C10.2026 13.4597 11.1564 13.0646 11.8597 12.3614C12.5629 11.6581 12.958 10.7043 12.958 9.70972C12.958 8.71516 12.5629 7.76133 11.8597 7.05807C11.1564 6.3548 10.2026 5.95972 9.20801 5.95972ZM14.083 5.77222C14.083 5.52358 13.9842 5.28512 13.8084 5.1093C13.6326 4.93349 13.3941 4.83472 13.1455 4.83472C12.8969 4.83472 12.6584 4.93349 12.4826 5.1093C12.3068 5.28512 12.208 5.52358 12.208 5.77222C12.208 6.02086 12.3068 6.25931 12.4826 6.43513C12.6584 6.61094 12.8969 6.70972 13.1455 6.70972C13.3941 6.70972 13.6326 6.61094 13.8084 6.43513C13.9842 6.25931 14.083 6.02086 14.083 5.77222ZM9.20801 7.45972C9.80474 7.45972 10.377 7.69677 10.799 8.11873C11.221 8.54068 11.458 9.11298 11.458 9.70972C11.458 10.3065 11.221 10.8788 10.799 11.3007C10.377 11.7227 9.80474 11.9597 9.20801 11.9597C8.61127 11.9597 8.03897 11.7227 7.61702 11.3007C7.19506 10.8788 6.95801 10.3065 6.95801 9.70972C6.95801 9.11298 7.19506 8.54068 7.61702 8.11873C8.03897 7.69677 8.61127 7.45972 9.20801 7.45972Z" fill="#007879"/>
</svg>
