<svg width="38" height="27" viewBox="0 0 38 27" fill="none" xmlns="http://www.w3.org/2000/svg">
<path fill-rule="evenodd" clip-rule="evenodd" d="M16.0768 18.8107C16.5528 18.7426 16.7788 18.5894 17.1179 18.3895L17.2634 18.7327C17.3148 18.859 17.344 18.9062 17.4127 19.0177C17.7712 19.5976 18.1412 19.9842 18.6858 20.4076L20.6879 21.9841C20.2996 22.7721 17.5614 24.0357 16.1044 23.9632C16.2569 22.1181 16.768 20.4757 16.0768 18.8107ZM15.7161 6.95264C20.8718 6.95264 25.0513 11.1969 25.0513 16.4318C25.0513 21.6667 20.8718 25.9105 15.7161 25.9105C10.5604 25.9105 6.38086 21.6667 6.38086 16.4318C6.38086 11.1969 10.5604 6.95264 15.7161 6.95264ZM12.0206 17.143C12.3711 17.1248 12.5587 17.1095 12.6977 17.0007C12.9871 17.0167 13.1239 16.8689 13.3651 16.7783C13.4073 17.2001 13.5917 17.5499 13.7718 17.8409C13.5625 17.9958 13.4003 17.9376 12.655 18.5081C12.4268 18.6822 12.3835 18.7893 12.191 18.9661L10.2299 21.4658C9.84865 21.2642 9.14017 20.0528 8.90653 19.5015C8.54255 18.6437 8.33217 17.8508 8.27214 16.8179C9.57499 16.8772 10.7118 17.1748 12.0206 17.143ZM14.8437 16.2539C15.1071 15.3308 16.2229 15.2984 16.5311 16.0804C16.7047 16.5224 16.509 16.9623 16.2245 17.1534C15.5171 17.63 14.8254 17.0738 14.8437 16.2539ZM18.5187 15.8728L18.0925 16.0469L17.8864 15.4318L17.6625 14.9953C18.119 14.6548 18.43 14.9003 19.6425 13.4011L21.2001 11.3726C21.5938 11.5626 22.2915 12.7779 22.5267 13.333C22.8848 14.176 23.1011 14.9942 23.1595 16.0134C22.0941 15.9986 19.3104 15.3835 18.5187 15.8728ZM20.0822 17.1462C20.3678 17.1353 20.8805 17.1446 21.0887 16.9996L23.1601 16.819C23.1087 17.814 22.8761 18.6833 22.5273 19.502C22.2942 20.0479 21.5792 21.2747 21.1996 21.4647C21.119 21.2922 20.9378 21.0951 20.8096 20.932L19.2282 18.9249C19.1401 18.8387 19.0957 18.8123 19.0054 18.7146C18.5711 18.2478 18.2602 18.1276 17.7296 17.8788L17.6615 17.8409C17.8556 17.4889 18.0006 17.2676 18.0714 16.7822C18.2764 16.8607 18.2099 16.8898 18.4029 16.8931C18.4527 16.9387 18.4289 16.9277 18.51 16.97C18.8237 17.1331 19.5933 17.1649 19.92 17.1506L20.0822 17.1462ZM10.7459 21.9858C10.9265 21.9001 11.1109 21.7167 11.2645 21.5827C12.2824 20.6981 13.3467 20.1396 14.0406 18.9842C14.1434 18.8129 14.2083 18.5433 14.3154 18.3922C14.7399 18.6234 14.8145 18.6415 15.3364 18.8255C15.2061 19.2439 15.0758 19.4274 15.019 19.9759C14.8951 21.1791 15.2634 22.6085 15.3251 23.9632C13.8665 24.0302 11.1277 22.7831 10.7459 21.9858ZM8.28836 16.0216C8.18885 14.5862 9.46034 11.7576 10.2343 11.371L11.7897 13.4011C12.0466 13.7202 12.3543 14.0898 12.6545 14.3286C13.3959 14.9195 13.5328 14.8196 13.7729 14.9953C13.5933 15.3445 13.4122 15.5669 13.3667 16.0568C11.7329 15.3193 10.092 15.903 8.28836 16.0216ZM16.1082 8.85869C17.1352 8.92843 17.9021 9.12831 18.7528 9.50337C19.298 9.74389 20.4943 10.4468 20.6836 10.846L18.2007 12.8668C18.046 13.0453 17.9156 13.1112 17.7734 13.3083C17.1844 14.1205 17.271 14.2248 17.1179 14.4461C16.6934 14.2034 16.6144 14.1935 16.0958 14.0107C16.2153 13.5966 16.3575 13.4171 16.4154 12.8553C16.5344 11.6928 16.1785 10.2035 16.1082 8.85869ZM10.7421 10.8499C10.9476 10.4578 12.1293 9.74005 12.6783 9.50447C13.5414 9.13435 14.2807 8.92568 15.3245 8.85924C15.2542 10.2162 14.8886 11.7224 15.0233 12.9031C15.085 13.4434 15.2142 13.6126 15.3381 14.0107C14.4754 14.3149 15.1217 14.0332 14.3154 14.4434C14.132 14.1826 14.2288 14.0392 13.662 13.3061C13.5214 13.1244 13.3835 13.0272 13.2148 12.8306L11.237 11.2271C11.0736 11.086 10.9227 10.9361 10.7421 10.8499Z" fill="#007879"/>
<path d="M30.9631 10.4434C31.5375 9.36933 32.3888 8.55221 33.5153 7.99209C34.6418 7.43143 36.0101 7.15137 37.6196 7.15137V10.4083C37.4358 10.3852 37.1827 10.3731 36.8609 10.3731C35.0675 10.3731 33.6592 10.9162 32.6359 12.0019C31.6127 13.0875 31.101 14.6344 31.101 16.6421V25.8873H27.7896V7.32654H30.9631V10.4434Z" fill="#007879"/>
<path d="M4.58406 18.2734H0V0.157959H31.0051V6.40054H27.7683V3.44454H3.23686V14.9868H4.58406V18.2734Z" fill="#007879"/>
<path fill-rule="evenodd" clip-rule="evenodd" d="M22.1772 16.3875H25.3746V26.0978H22.1772V16.3875Z" fill="#007879"/>
<path d="M15.4849 6.01367C18.2155 6.01367 20.6882 7.13775 22.4783 8.95484C24.2679 10.7719 25.375 13.2831 25.375 16.0557C25.375 18.8283 24.2679 21.3395 22.4783 23.1566C20.6882 24.9737 18.2155 26.0978 15.4849 26.0978C12.7542 26.0978 10.281 24.9737 8.4914 23.1566C6.7018 21.3395 5.59473 18.8283 5.59473 16.0557C5.59473 13.2831 6.7018 10.7719 8.4914 8.95484C10.281 7.13775 12.7542 6.01367 15.4849 6.01367ZM20.1895 11.2788C18.9856 10.0564 17.322 9.30025 15.4849 9.30025C13.6471 9.30025 11.9835 10.0564 10.7802 11.2788C9.5763 12.5006 8.83158 14.1903 8.83158 16.0557C8.83158 17.9211 9.5763 19.6103 10.7802 20.8327C11.9835 22.055 13.6471 22.8112 15.4849 22.8112C17.322 22.8112 18.9856 22.055 20.1895 20.8327C21.3934 19.6103 22.1381 17.9211 22.1381 16.0557C22.1381 14.1903 21.3934 12.5006 20.1895 11.2788Z" fill="#007879"/>
</svg>
