<svg width="126" height="29" viewBox="0 0 126 29" fill="none" xmlns="http://www.w3.org/2000/svg">
<path fill-rule="evenodd" clip-rule="evenodd" d="M18.2228 20.7308C18.7434 20.6563 18.9907 20.4887 19.3616 20.27L19.5208 20.6455C19.577 20.7836 19.6089 20.8353 19.684 20.9572C20.0763 21.5916 20.481 22.0145 21.0767 22.4776L23.2669 24.2022C22.8421 25.0643 19.8467 26.4465 18.2529 26.3672C18.4198 24.3488 18.9788 22.5521 18.2228 20.7308ZM17.8281 7.75909C23.468 7.75909 28.0401 12.402 28.0401 18.1285C28.0401 23.855 23.468 28.4973 17.8281 28.4973C12.1882 28.4973 7.61621 23.855 7.61621 18.1285C7.61621 12.402 12.1882 7.75909 17.8281 7.75909ZM13.7856 18.9064C14.169 18.8866 14.3743 18.8698 14.5263 18.7508C14.8428 18.7682 14.9925 18.6067 15.2564 18.5075C15.3025 18.9689 15.5043 19.3515 15.7013 19.6699C15.4723 19.8393 15.2948 19.7756 14.4796 20.3998C14.2299 20.5902 14.1826 20.7073 13.972 20.9008L11.8268 23.6352C11.4097 23.4147 10.6346 22.0896 10.3791 21.4864C9.98091 20.5481 9.75077 19.6807 9.6851 18.5508C11.1103 18.6157 12.3539 18.9412 13.7856 18.9064ZM16.8739 17.9339C17.162 16.9241 18.3825 16.8886 18.7197 17.744C18.9096 18.2276 18.6955 18.7088 18.3843 18.9178C17.6104 19.4392 16.8537 18.8307 16.8739 17.9339ZM20.8939 17.517L20.4277 17.7074L20.2023 17.0346L19.9574 16.557C20.4567 16.1846 20.7969 16.4531 22.1233 14.8132L23.8272 12.5942C24.2579 12.802 25.021 14.1314 25.2784 14.7387C25.67 15.6608 25.9067 16.5558 25.9706 17.6708C24.8051 17.6545 21.76 16.9817 20.8939 17.517ZM22.6043 18.91C22.9167 18.898 23.4775 18.9082 23.7053 18.7496L25.9712 18.552C25.915 19.6405 25.6606 20.5914 25.279 21.487C25.024 22.0841 24.2419 23.4261 23.8266 23.634C23.7384 23.4453 23.5402 23.2297 23.4 23.0513L21.6701 20.8557C21.5737 20.7614 21.5252 20.7326 21.4264 20.6256C20.9513 20.115 20.6111 19.9835 20.0307 19.7114L19.9562 19.6699C20.1686 19.2849 20.3271 19.0428 20.4046 18.5117C20.6289 18.5976 20.5561 18.6295 20.7673 18.6331C20.8217 18.6829 20.7957 18.6709 20.8844 18.7172C21.2276 18.8956 22.0695 18.9304 22.4268 18.9148L22.6043 18.91ZM12.3912 24.204C12.5888 24.1103 12.7905 23.9097 12.9585 23.7631C14.072 22.7954 15.2363 22.1845 15.9953 20.9206C16.1077 20.7332 16.1787 20.4382 16.2958 20.273C16.7603 20.5259 16.8419 20.5457 17.4128 20.747C17.2702 21.2047 17.1277 21.4053 17.0655 22.0055C16.9301 23.3216 17.333 24.8852 17.4004 26.3672C15.8048 26.4405 12.8088 25.0763 12.3912 24.204ZM9.70285 17.6798C9.59399 16.1095 10.9849 13.0153 11.8315 12.5924L13.533 14.8132C13.814 15.1622 14.1506 15.5665 14.479 15.8278C15.2901 16.4741 15.4398 16.3648 15.7025 16.557C15.506 16.9391 15.3078 17.1824 15.2582 17.7182C13.4709 16.9115 11.6759 17.55 9.70285 17.6798ZM18.2571 9.84415C19.3805 9.92044 20.2195 10.1391 21.1501 10.5494C21.7464 10.8125 23.0551 11.5814 23.2622 12.0181L20.546 14.2287C20.3768 14.4239 20.2343 14.496 20.0787 14.7117C19.4344 15.6001 19.529 15.7143 19.3616 15.9563C18.8972 15.6908 18.8108 15.68 18.2435 15.48C18.3742 15.027 18.5298 14.8306 18.5931 14.2161C18.7233 12.9444 18.334 11.3153 18.2571 9.84415ZM12.387 12.0223C12.6118 11.5934 13.9045 10.8083 14.505 10.5506C15.4492 10.1457 16.258 9.91743 17.3998 9.84475C17.3229 11.3291 16.923 12.9768 17.0703 14.2684C17.1377 14.8594 17.2791 15.0445 17.4146 15.48C16.471 15.8128 17.178 15.5046 16.2958 15.9533C16.0953 15.668 16.2012 15.5112 15.5812 14.7093C15.4274 14.5104 15.2765 14.4041 15.0919 14.1891L12.9284 12.435C12.7497 12.2806 12.5846 12.1166 12.387 12.0223Z" fill="#007879"/>
<path d="M34.5071 11.5778C35.1354 10.4028 36.0666 9.50896 37.299 8.89624C38.5313 8.28292 40.0281 7.97656 41.7888 7.97656V11.5394C41.5876 11.5141 41.3108 11.5009 40.9587 11.5009C38.9969 11.5009 37.4564 12.095 36.337 13.2826C35.2177 14.4702 34.658 16.1624 34.658 18.3586V28.4721H31.0355V8.16819H34.5071V11.5778ZM56.8431 7.97656C58.7801 7.97656 60.5153 8.41087 62.0499 9.27889C63.584 10.1475 64.785 11.3603 65.6529 12.9186C66.5208 14.4768 66.9545 16.2771 66.9545 18.3201C66.9545 20.3631 66.5208 22.1701 65.6529 23.7409C64.785 25.3118 63.584 26.5312 62.0499 27.3998C60.5153 28.2678 58.7801 28.7021 56.8431 28.7021C55.3587 28.7021 54.001 28.4084 52.768 27.8209C51.5357 27.2334 50.5169 26.378 49.7123 25.2541V28.4721H46.2407V0.0466309H49.8632V11.233C50.6678 10.1601 51.6741 9.34918 52.8816 8.80013C54.0885 8.25108 55.409 7.97656 56.8431 7.97656ZM56.5414 25.4842C57.824 25.4842 58.9747 25.1838 59.9935 24.5837C61.0123 23.9836 61.8174 23.1408 62.4085 22.0553C62.9995 20.9698 63.2947 19.7252 63.2947 18.3201C63.2947 16.9157 62.9995 15.6704 62.4085 14.5849C61.8174 13.4995 61.0123 12.6633 59.9935 12.0758C58.9747 11.4883 57.824 11.1945 56.5414 11.1945C55.2836 11.1945 54.1394 11.4883 53.1076 12.0758C52.0764 12.6633 51.2718 13.4995 50.6932 14.5849C50.1146 15.6704 49.8253 16.9157 49.8253 18.3201C49.8253 19.7252 50.1146 20.9698 50.6932 22.0553C51.2718 23.1408 52.0764 23.9836 53.1076 24.5837C54.1394 25.1838 55.2836 25.4842 56.5414 25.4842Z" fill="#007879"/>
<path d="M97.992 18.0655C97.7051 18.0655 97.4592 17.964 97.2543 17.7611C97.0491 17.5583 96.9468 17.3008 96.9468 16.9885C96.9468 16.6868 97.0491 16.4345 97.2543 16.2313C97.4592 16.0285 97.7051 15.9269 97.992 15.9269C98.2789 15.9269 98.5199 16.0259 98.7145 16.2235C98.9091 16.4214 99.0066 16.6763 99.0066 16.9885C99.0066 17.3008 98.9065 17.5583 98.7068 17.7611C98.507 17.964 98.2689 18.0655 97.992 18.0655ZM105.602 17.4879C105.386 17.6753 105.12 17.8185 104.802 17.9171C104.484 18.0161 104.157 18.0655 103.818 18.0655C102.998 18.0655 102.363 17.8417 101.912 17.3942C101.461 16.9469 101.236 16.307 101.236 15.4744V10.9321H99.852V9.69917H101.236V7.88855H102.711V9.69917H105.048V10.9321H102.711V15.4119C102.711 15.8594 102.822 16.2028 103.042 16.442C103.262 16.6815 103.577 16.8011 103.987 16.8011C104.438 16.8011 104.823 16.671 105.14 16.4109L105.602 17.4879ZM110.598 18.0655C109.788 18.0655 109.06 17.8834 108.415 17.5193C107.769 17.155 107.264 16.653 106.9 16.0128C106.537 15.3729 106.355 14.6471 106.355 13.8355C106.355 13.0239 106.537 12.2981 106.9 11.6582C107.264 11.018 107.769 10.5186 108.415 10.1595C109.06 9.80075 109.788 9.62119 110.598 9.62119C111.407 9.62119 112.132 9.80075 112.773 10.1595C113.413 10.5186 113.916 11.018 114.279 11.6582C114.643 12.2981 114.825 13.0239 114.825 13.8355C114.825 14.6471 114.643 15.3729 114.279 16.0128C113.916 16.653 113.413 17.155 112.773 17.5193C112.132 17.8834 111.407 18.0655 110.598 18.0655ZM110.598 16.7543C111.12 16.7543 111.589 16.632 112.004 16.3876C112.419 16.1429 112.744 15.7995 112.98 15.3575C113.216 14.9151 113.334 14.4079 113.334 13.8355C113.334 13.2631 113.216 12.7559 112.98 12.3135C112.744 11.8715 112.419 11.5308 112.004 11.2913C111.589 11.0521 111.12 10.9321 110.598 10.9321C110.075 10.9321 109.606 11.0521 109.191 11.2913C108.776 11.5308 108.448 11.8715 108.207 12.3135C107.966 12.7559 107.846 13.2631 107.846 13.8355C107.846 14.4079 107.966 14.9151 108.207 15.3575C108.448 15.7995 108.776 16.1429 109.191 16.3876C109.606 16.632 110.075 16.7543 110.598 16.7543ZM121.189 9.62119C121.979 9.62119 122.686 9.79813 123.311 10.152C123.936 10.5055 124.425 11 124.779 11.6346C125.132 12.2693 125.309 13.0029 125.309 13.8355C125.309 14.6681 125.132 15.4043 124.779 16.0442C124.425 16.6841 123.936 17.1809 123.311 17.5347C122.686 17.8886 121.979 18.0655 121.189 18.0655C120.605 18.0655 120.07 17.9509 119.583 17.7222C119.096 17.4931 118.683 17.1602 118.345 16.7231V21H116.87V9.69917H118.284V11.0105C118.612 10.5524 119.027 10.2064 119.529 9.97244C120.031 9.73817 120.584 9.62119 121.189 9.62119ZM121.066 16.7543C121.589 16.7543 122.058 16.632 122.473 16.3876C122.888 16.1429 123.216 15.7995 123.457 15.3575C123.698 14.9151 123.818 14.4079 123.818 13.8355C123.818 13.2631 123.698 12.7559 123.457 12.3135C123.216 11.8715 122.888 11.5308 122.473 11.2913C122.058 11.0521 121.589 10.9321 121.066 10.9321C120.554 10.9321 120.09 11.0547 119.675 11.2991C119.26 11.5435 118.932 11.8843 118.691 12.3214C118.45 12.7585 118.33 13.2631 118.33 13.8355C118.33 14.4079 118.448 14.9151 118.683 15.3575C118.919 15.7995 119.247 16.1429 119.667 16.3876C120.087 16.632 120.554 16.7543 121.066 16.7543Z" fill="#366B6B"/>
<path d="M5.6503 20.1432H0.635742V0.326538H34.5527V7.15537H31.0118V3.92177H4.17658V16.548H5.6503V20.1432Z" fill="#007879"/>
<path d="M79.3748 6.73193C82.3619 6.73193 85.0674 7.96158 87.0251 9.94932C88.9827 11.9371 90.1938 14.6841 90.1938 17.7171C90.1938 20.75 88.9827 23.4971 87.0251 25.4848C85.0674 27.4725 82.3619 28.7022 79.3748 28.7022C76.3878 28.7022 73.6829 27.4725 71.7252 25.4848C69.7675 23.4971 68.5559 20.75 68.5559 17.7171C68.5559 14.6841 69.7675 11.9371 71.7252 9.94932C73.6829 7.96158 76.3878 6.73193 79.3748 6.73193ZM84.5219 12.4915C83.205 11.1543 81.3852 10.3272 79.3748 10.3272C77.3651 10.3272 75.5453 11.1543 74.2283 12.4915C72.9114 13.8281 72.0967 15.6765 72.0967 17.7171C72.0967 19.7577 72.9114 21.6054 74.2283 22.9426C75.5453 24.2798 77.3651 25.1069 79.3748 25.1069C81.3852 25.1069 83.205 24.2798 84.5219 22.9426C85.8383 21.6054 86.6529 19.7577 86.6529 17.7171C86.6529 15.6765 85.8383 13.8281 84.5219 12.4915Z" fill="#007879"/>
<path fill-rule="evenodd" clip-rule="evenodd" d="M86.6897 18.0798H90.1873V28.7021H86.6897V18.0798Z" fill="#007879"/>
<path fill-rule="evenodd" clip-rule="evenodd" d="M24.8956 18.0798H28.3933V28.7021H24.8956V18.0798Z" fill="#007879"/>
<path d="M17.5744 6.73193C20.5615 6.73193 23.2664 7.96158 25.2246 9.94932C27.1823 11.9371 28.3934 14.6841 28.3934 17.7171C28.3934 20.75 27.1823 23.4971 25.2246 25.4848C23.2664 27.4725 20.5615 28.7022 17.5744 28.7022C14.5873 28.7022 11.8819 27.4725 9.9242 25.4848C7.96654 23.4971 6.75549 20.75 6.75549 17.7171C6.75549 14.6841 7.96654 11.9371 9.9242 9.94932C11.8819 7.96158 14.5873 6.73193 17.5744 6.73193ZM22.7209 12.4915C21.404 11.1543 19.5842 10.3272 17.5744 10.3272C15.5641 10.3272 13.7443 11.1543 12.4279 12.4915C11.111 13.8281 10.2963 15.6765 10.2963 17.7171C10.2963 19.7577 11.111 21.6054 12.4279 22.9426C13.7443 24.2798 15.5641 25.1069 17.5744 25.1069C19.5842 25.1069 21.404 24.2798 22.7209 22.9426C24.0379 21.6054 24.8525 19.7577 24.8525 17.7171C24.8525 15.6765 24.0379 13.8281 22.7209 12.4915Z" fill="#007879"/>
</svg>
