<svg width="114" height="27" viewBox="0 0 114 27" fill="none" xmlns="http://www.w3.org/2000/svg">
<path fill-rule="evenodd" clip-rule="evenodd" d="M16.7126 18.922C17.1885 18.8539 17.4146 18.7007 17.7537 18.5008L17.8991 18.844C17.9505 18.9703 17.9797 19.0176 18.0484 19.129C18.407 19.7089 18.7769 20.0955 19.3215 20.5189L21.3237 22.0955C20.9354 22.8835 18.1971 24.147 16.7402 24.0746C16.8927 22.2295 17.4037 20.587 16.7126 18.922ZM16.3518 7.06396C21.5076 7.06396 25.6871 11.3082 25.6871 16.5432C25.6871 21.7781 21.5076 26.0218 16.3518 26.0218C11.1961 26.0218 7.0166 21.7781 7.0166 16.5432C7.0166 11.3082 11.1961 7.06396 16.3518 7.06396ZM12.6564 17.2543C13.0068 17.2362 13.1945 17.2208 13.3335 17.1121C13.6228 17.128 13.7596 16.9803 14.0009 16.8897C14.043 17.3114 14.2275 17.6612 14.4076 17.9522C14.1983 18.1071 14.036 18.0489 13.2908 18.6194C13.0625 18.7935 13.0193 18.9006 12.8267 19.0774L10.8657 21.5771C10.4844 21.3755 9.77591 20.1642 9.54227 19.6128C9.17829 18.7551 8.96791 17.9621 8.90788 16.9292C10.2107 16.9885 11.3476 17.2861 12.6564 17.2543ZM15.4795 16.3652C15.7429 15.4421 16.8586 15.4097 17.1669 16.1917C17.3405 16.6338 17.1447 17.0736 16.8602 17.2647C16.1528 17.7414 15.4611 17.1851 15.4795 16.3652ZM19.1544 15.9841L18.7282 16.1582L18.5222 15.5432L18.2983 15.1066C18.7547 14.7661 19.0657 15.0116 20.2783 13.5125L21.8358 11.484C22.2296 11.674 22.9272 12.8892 23.1625 13.4444C23.5205 14.2873 23.7368 15.1055 23.7953 16.1247C22.7298 16.1099 19.9462 15.4948 19.1544 15.9841ZM20.7179 17.2576C21.0035 17.2466 21.5162 17.2559 21.7244 17.111L23.7958 16.9303C23.7444 17.9253 23.5119 18.7946 23.163 19.6134C22.9299 20.1592 22.215 21.386 21.8353 21.576C21.7547 21.4036 21.5735 21.2064 21.4454 21.0433L19.864 19.0362C19.7758 18.95 19.7315 18.9237 19.6412 18.8259C19.2069 18.3591 18.8959 18.2389 18.3653 17.9901L18.2972 17.9522C18.4914 17.6002 18.6363 17.3789 18.7071 16.8935C18.9121 16.972 18.8456 17.0011 19.0387 17.0044C19.0884 17.05 19.0646 17.039 19.1458 17.0813C19.4594 17.2444 20.229 17.2762 20.5557 17.262L20.7179 17.2576ZM11.3816 22.0971C11.5623 22.0114 11.7467 21.828 11.9003 21.694C12.9181 20.8094 13.9825 20.2509 14.6764 19.0955C14.7791 18.9242 14.844 18.6546 14.9511 18.5036C15.3756 18.7348 15.4503 18.7529 15.9722 18.9368C15.8418 19.3553 15.7115 19.5387 15.6547 20.0873C15.5309 21.2904 15.8992 22.7198 15.9608 24.0746C14.5022 24.1415 11.7635 22.8945 11.3816 22.0971ZM8.9241 16.1329C8.82459 14.6975 10.0961 11.8689 10.87 11.4823L12.4254 13.5125C12.6823 13.8315 12.99 14.2011 13.2902 14.44C14.0317 15.0308 14.1685 14.9309 14.4086 15.1066C14.2291 15.4559 14.0479 15.6783 14.0025 16.1681C12.3686 15.4306 10.7278 16.0143 8.9241 16.1329ZM16.7439 8.97002C17.771 9.03976 18.5379 9.23964 19.3886 9.6147C19.9337 9.85522 21.1301 10.5581 21.3193 10.9573L18.8364 12.9782C18.6817 13.1566 18.5514 13.2225 18.4092 13.4197C17.8202 14.2318 17.9067 14.3362 17.7537 14.5575C17.3291 14.3148 17.2502 14.3049 16.7315 14.122C16.851 13.708 16.9933 13.5284 17.0511 12.9666C17.1701 11.8041 16.8142 10.3149 16.7439 8.97002ZM11.3778 10.9612C11.5834 10.5691 12.7651 9.85138 13.314 9.6158C14.1772 9.24568 14.9165 9.03701 15.9603 8.97057C15.89 10.3275 15.5244 11.8338 15.659 13.0144C15.7207 13.5548 15.8499 13.7239 15.9738 14.122C15.1112 14.4262 15.7575 14.1445 14.9511 14.5547C14.7678 14.2939 14.8646 14.1506 14.2978 13.4175C14.1572 13.2357 14.0192 13.1385 13.8505 12.9419L11.8727 11.3384C11.7094 11.1973 11.5585 11.0474 11.3778 10.9612Z" fill="#007879"/>
<path d="M31.599 10.5549C32.1734 9.48078 33.0246 8.66366 34.1512 8.10354C35.2777 7.54288 36.646 7.26282 38.2555 7.26282V10.5197C38.0716 10.4967 37.8185 10.4846 37.4967 10.4846C35.7033 10.4846 34.295 11.0277 33.2718 12.1133C32.2485 13.199 31.7369 14.7459 31.7369 16.7535V25.9988H28.4254V7.43799H31.599V10.5549ZM52.0174 7.26282C53.7881 7.26282 55.3743 7.65984 56.7773 8.45334C58.1796 9.24739 59.2775 10.3561 60.0709 11.7806C60.8643 13.205 61.2607 14.8508 61.2607 16.7184C61.2607 18.586 60.8643 20.2378 60.0709 21.6738C59.2775 23.1098 58.1796 24.2245 56.7773 25.0186C55.3743 25.8121 53.7881 26.2091 52.0174 26.2091C50.6605 26.2091 49.4193 25.9406 48.2922 25.4035C47.1657 24.8665 46.2344 24.0845 45.4988 23.0571V25.9988H42.3252V0.0136719H45.6367V10.2397C46.3723 9.25893 47.2922 8.51759 48.396 8.01568C49.4993 7.51377 50.7065 7.26282 52.0174 7.26282ZM51.7416 23.2674C52.9141 23.2674 53.966 22.9928 54.8973 22.4442C55.8286 21.8956 56.5647 21.1252 57.105 20.1329C57.6453 19.1406 57.9152 18.0028 57.9152 16.7184C57.9152 15.4345 57.6453 14.2962 57.105 13.3039C56.5647 12.3116 55.8286 11.5472 54.8973 11.0101C53.966 10.4731 52.9141 10.2045 51.7416 10.2045C50.5918 10.2045 49.5458 10.4731 48.6026 11.0101C47.66 11.5472 46.9244 12.3116 46.3955 13.3039C45.8666 14.2962 45.6021 15.4345 45.6021 16.7184C45.6021 18.0028 45.8666 19.1406 46.3955 20.1329C46.9244 21.1252 47.66 21.8956 48.6026 22.4442C49.5458 22.9928 50.5918 23.2674 51.7416 23.2674Z" fill="#007879"/>
<path d="M88.4373 10.1717C88.1751 10.1717 87.9503 10.0788 87.7629 9.89344C87.5753 9.70803 87.4818 9.4726 87.4818 9.18715C87.4818 8.91129 87.5753 8.68066 87.7629 8.49495C87.9503 8.30954 88.1751 8.21669 88.4373 8.21669C88.6996 8.21669 88.9199 8.30715 89.0978 8.48776C89.2757 8.66867 89.3648 8.90171 89.3648 9.18715C89.3648 9.4726 89.2733 9.70803 89.0907 9.89344C88.9081 10.0788 88.6904 10.1717 88.4373 10.1717ZM95.3936 9.64363C95.1968 9.81496 94.9531 9.94586 94.6629 10.036C94.3723 10.1265 94.0726 10.1717 93.7634 10.1717C93.0139 10.1717 92.433 9.96712 92.0209 9.55797C91.6085 9.14911 91.4026 8.56414 91.4026 7.80304V3.65071H90.1377V2.52359H91.4026V0.868408H92.7516V2.52359H94.8877V3.65071H92.7516V7.74583C92.7516 8.15499 92.8522 8.46889 93.0537 8.68754C93.2552 8.9065 93.5431 9.01583 93.918 9.01583C94.3301 9.01583 94.6815 8.89691 94.972 8.65909L95.3936 9.64363ZM99.9607 10.1717C99.2205 10.1717 98.5553 10.0052 97.965 9.67239C97.3748 9.33931 96.9134 8.88044 96.5809 8.29517C96.2485 7.71019 96.0821 7.04674 96.0821 6.30481C96.0821 5.56289 96.2485 4.89944 96.5809 4.31446C96.9134 3.72919 97.3748 3.27271 97.965 2.94443C98.5553 2.61644 99.2205 2.4523 99.9607 2.4523C100.701 2.4523 101.364 2.61644 101.949 2.94443C102.535 3.27271 102.994 3.72919 103.326 4.31446C103.659 4.89944 103.825 5.56289 103.825 6.30481C103.825 7.04674 103.659 7.71019 103.326 8.29517C102.994 8.88044 102.535 9.33931 101.949 9.67239C101.364 10.0052 100.701 10.1717 99.9607 10.1717ZM99.9607 8.97299C100.439 8.97299 100.867 8.86127 101.247 8.63782C101.626 8.41408 101.923 8.10017 102.139 7.69611C102.354 7.29175 102.462 6.82809 102.462 6.30481C102.462 5.78154 102.354 5.31787 102.139 4.91351C101.923 4.50945 101.626 4.19794 101.247 3.97899C100.867 3.76034 100.439 3.65071 99.9607 3.65071C99.4828 3.65071 99.0542 3.76034 98.6748 3.97899C98.2954 4.19794 97.9957 4.50945 97.7754 4.91351C97.5553 5.31787 97.4453 5.78154 97.4453 6.30481C97.4453 6.82809 97.5553 7.29175 97.7754 7.69611C97.9957 8.10017 98.2954 8.41408 98.6748 8.63782C99.0542 8.86127 99.4828 8.97299 99.9607 8.97299ZM109.643 2.4523C110.365 2.4523 111.011 2.61405 111.582 2.93754C112.154 3.26073 112.601 3.71271 112.925 4.29289C113.248 4.87308 113.409 5.54372 113.409 6.30481C113.409 7.06591 113.248 7.73894 112.925 8.32392C112.601 8.90889 112.154 9.36298 111.582 9.68647C111.011 10.01 110.365 10.1717 109.643 10.1717C109.109 10.1717 108.62 10.0669 108.175 9.85779C107.729 9.64843 107.352 9.34411 107.043 8.94454V12.8543H105.694V2.52359H106.987V3.7223C107.287 3.30356 107.666 2.98726 108.125 2.7734C108.584 2.55923 109.09 2.4523 109.643 2.4523ZM109.531 8.97299C110.009 8.97299 110.437 8.86127 110.817 8.63782C111.196 8.41408 111.496 8.10017 111.716 7.69611C111.936 7.29175 112.046 6.82809 112.046 6.30481C112.046 5.78154 111.936 5.31787 111.716 4.91351C111.496 4.50945 111.196 4.19794 110.817 3.97899C110.437 3.76034 110.009 3.65071 109.531 3.65071C109.062 3.65071 108.638 3.76273 108.259 3.98618C107.88 4.20963 107.58 4.52113 107.359 4.9207C107.139 5.32027 107.029 5.78154 107.029 6.30481C107.029 6.82809 107.137 7.29175 107.352 7.69611C107.568 8.10017 107.868 8.41408 108.252 8.63782C108.636 8.86127 109.062 8.97299 109.531 8.97299Z" fill="#4D4D61"/>
<path d="M5.2198 18.3849H0.635742V0.269409H31.6409V6.51199H28.404V3.55599H3.8726V15.0983H5.2198V18.3849Z" fill="#007879"/>
<path d="M72.6149 6.12476C75.3455 6.12476 77.8187 7.24884 79.6083 9.06593C81.3979 10.883 82.505 13.3942 82.505 16.1668C82.505 18.9394 81.3979 21.4506 79.6083 23.2677C77.8187 25.0848 75.3455 26.2089 72.6149 26.2089C69.8842 26.2089 67.4115 25.0848 65.6219 23.2677C63.8323 21.4506 62.7247 18.9394 62.7247 16.1668C62.7247 13.3942 63.8323 10.883 65.6219 9.06593C67.4115 7.24884 69.8842 6.12476 72.6149 6.12476ZM77.3201 11.3899C76.1162 10.1675 74.4526 9.41133 72.6149 9.41133C70.7777 9.41133 69.1141 10.1675 67.9102 11.3899C66.7063 12.6117 65.9616 14.3014 65.9616 16.1668C65.9616 18.0322 66.7063 19.7214 67.9102 20.9437C69.1141 22.1661 70.7777 22.9223 72.6149 22.9223C74.4526 22.9223 76.1162 22.1661 77.3201 20.9437C78.5234 19.7214 79.2681 18.0322 79.2681 16.1668C79.2681 14.3014 78.5234 12.6117 77.3201 11.3899Z" fill="#007879"/>
<path fill-rule="evenodd" clip-rule="evenodd" d="M79.3018 16.4988H82.4991V26.2092H79.3018V16.4988Z" fill="#007879"/>
<path fill-rule="evenodd" clip-rule="evenodd" d="M22.8129 16.4988H26.0102V26.2092H22.8129V16.4988Z" fill="#007879"/>
<path d="M16.1206 6.125C18.8512 6.125 21.3239 7.24908 23.114 9.06617C24.9036 10.8833 26.0107 13.3945 26.0107 16.1671C26.0107 18.9396 24.9036 21.4508 23.114 23.2679C21.3239 25.085 18.8512 26.2091 16.1206 26.2091C13.39 26.2091 10.9167 25.085 9.12714 23.2679C7.33754 21.4508 6.23047 18.9396 6.23047 16.1671C6.23047 13.3945 7.33754 10.8833 9.12714 9.06617C10.9167 7.24908 13.39 6.125 16.1206 6.125ZM20.8253 11.3901C19.6214 10.1677 17.9578 9.41158 16.1206 9.41158C14.2829 9.41158 12.6193 10.1677 11.4159 11.3901C10.212 12.6119 9.46733 14.3016 9.46733 16.1671C9.46733 18.0325 10.212 19.7216 11.4159 20.944C12.6193 22.1664 14.2829 22.9225 16.1206 22.9225C17.9578 22.9225 19.6214 22.1664 20.8253 20.944C22.0291 19.7216 22.7739 18.0325 22.7739 16.1671C22.7739 14.3016 22.0291 12.6119 20.8253 11.3901Z" fill="#007879"/>
</svg>
