<svg width="16" height="13" viewBox="0 0 16 13" fill="none" xmlns="http://www.w3.org/2000/svg">
<path d="M15.8413 4.34073V10.4429C15.8413 11.065 15.6033 11.6636 15.176 12.1158C14.7487 12.5681 14.1646 12.8396 13.5435 12.8749L13.4056 12.8786H3.28781C2.66565 12.8787 2.06706 12.6406 1.61483 12.2133C1.1626 11.7861 0.891022 11.2019 0.855798 10.5808L0.852051 10.4429V4.34073L8.08587 8.13002C8.16634 8.17217 8.25583 8.19419 8.34668 8.19419C8.43753 8.19419 8.52702 8.17217 8.60749 8.13002L15.8413 4.34073ZM3.28781 0.887207H13.4056C14.0093 0.887134 14.5916 1.11129 15.0394 1.51621C15.4873 1.92112 15.7688 2.47793 15.8293 3.07864L8.34668 6.99833L0.864042 3.07864C0.922143 2.50178 1.1841 1.96457 1.60283 1.56357C2.02155 1.16257 2.56958 0.924071 3.14841 0.890954L3.28781 0.887207Z" fill="#ADCBCB"/>
</svg>
