<svg width="20" height="20" viewBox="0 0 20 20" fill="none" xmlns="http://www.w3.org/2000/svg">
<path d="M17.5975 5.39016C17.5292 5.11654 17.3957 4.86353 17.2083 4.65283C17.0208 4.44213 16.7851 4.28002 16.5213 4.1804C13.983 3.20071 9.93066 3.20813 9.70801 3.20813C9.48535 3.20813 5.43301 3.20071 2.89473 4.1804C2.63091 4.28002 2.39518 4.44213 2.20775 4.65283C2.02032 4.86353 1.88677 5.11654 1.81855 5.39016C1.62559 6.12493 1.39551 7.47571 1.39551 9.70969C1.39551 11.9437 1.62559 13.2945 1.81855 14.0292C1.88677 14.3029 2.02032 14.5559 2.20775 14.7666C2.39518 14.9773 2.63091 15.1394 2.89473 15.239C5.3291 16.1816 9.14395 16.2113 9.65605 16.2113H9.75996C10.2721 16.2113 14.0869 16.1816 16.5213 15.239C16.7851 15.1394 17.0208 14.9773 17.2083 14.7666C17.3957 14.5559 17.5292 14.3029 17.5975 14.0292C17.7904 13.2945 18.0205 11.9437 18.0205 9.70969C18.0205 7.47571 17.7904 6.12493 17.5975 5.39016ZM12.2463 9.95462L8.68379 12.3296C8.63654 12.3644 8.57916 12.3826 8.52051 12.3816C8.47134 12.3797 8.42319 12.3671 8.37949 12.3445C8.33205 12.3198 8.29238 12.2824 8.26487 12.2366C8.23736 12.1907 8.22308 12.1382 8.22363 12.0847V7.33469C8.22308 7.28122 8.23736 7.22865 8.26487 7.18279C8.29238 7.13694 8.33205 7.09961 8.37949 7.07493C8.42682 7.04968 8.48011 7.03773 8.53369 7.04034C8.58727 7.04295 8.63914 7.06004 8.68379 7.08977L12.2463 9.46477C12.2877 9.49085 12.3218 9.52699 12.3454 9.56982C12.3691 9.61265 12.3815 9.66077 12.3815 9.70969C12.3815 9.75862 12.3691 9.80674 12.3454 9.84957C12.3218 9.8924 12.2877 9.92854 12.2463 9.95462Z" fill="#007879"/>
</svg>
