<svg width="17" height="16" viewBox="0 0 17 16" fill="none" xmlns="http://www.w3.org/2000/svg">
<path d="M14.2087 2.3789C12.6441 0.807164 10.495 -0.05355 8.27049 0.0025835C3.84037 0.133562 0.371683 3.78224 0.503644 8.17937C0.522495 9.09622 0.711011 9.99435 1.05034 10.8364C1.33311 11.5474 1.71014 12.2023 2.18143 12.801L1.52163 14.3541C1.25771 14.9528 1.54048 15.6451 2.14373 15.9071C2.3511 16.0006 2.59617 16.0194 2.82239 15.9819L5.87634 15.458C6.96973 15.8322 8.11968 15.9632 9.26962 15.851C13.2096 15.458 16.2824 12.2584 16.4898 8.32906C16.6029 6.10243 15.7734 3.95064 14.2087 2.3789ZM7.91231 11.117H5.81979C5.49931 11.117 5.21654 10.8551 5.21654 10.5183C5.21654 10.2002 5.48046 9.91951 5.81979 9.91951H7.91231C8.23279 9.91951 8.51556 10.1815 8.51556 10.5183C8.51556 10.8551 8.25164 11.117 7.91231 11.117ZM11.1736 8.68457H5.81979C5.49931 8.68457 5.21654 8.42262 5.21654 8.08581C5.21654 7.74901 5.48046 7.48706 5.81979 7.48706H11.1736C11.4941 7.48706 11.7769 7.74901 11.7769 8.08581C11.7769 8.42262 11.4941 8.68457 11.1736 8.68457ZM11.1736 6.23341H5.81979C5.49931 6.23341 5.21654 5.97145 5.21654 5.63465C5.21654 5.31656 5.48046 5.03589 5.81979 5.03589H11.1736C11.4941 5.03589 11.7769 5.29785 11.7769 5.63465C11.7769 5.95274 11.4941 6.23341 11.1736 6.23341Z" fill="#D7D8D9"/>
</svg>
