<svg width="33" height="25" viewBox="0 0 33 25" fill="none" xmlns="http://www.w3.org/2000/svg">
<path d="M26.488 24.251C25.7867 24.251 25.2153 23.6722 25.2153 22.962V21.673H26.488C28.5166 21.673 29.0333 20.9744 29.0333 20.9744V22.962C29.0333 23.6722 28.4619 24.251 27.7607 24.251H26.488Z" fill="#FFC431"/>
<path d="M4.85261 24.251C4.15137 24.251 3.57994 23.6722 3.57994 22.962V20.9744C3.57994 20.9744 4.09664 21.673 6.12527 21.673H7.39794V22.962C7.39794 23.6722 6.82651 24.251 6.12527 24.251H4.85261Z" fill="#FFC431"/>
<path d="M32.6134 10.7166C32.6134 9.07054 31.2949 7.73515 29.6697 7.73515C28.4072 7.73515 27.3382 8.54464 26.9207 9.67637L25.5246 12.8434C25.4203 12.7777 21.1988 11.4345 16.3856 11.4345C11.5724 11.4345 7.18421 12.7841 7.07731 12.8511L5.755 9.88003C5.39738 8.64518 4.27998 7.73644 2.94368 7.73644C1.31848 7.73644 0 9.07054 0 10.7179C0 12.0881 0.918866 13.2301 2.16226 13.5794L2.70696 18.3216C3.28221 20.3337 6.12535 20.384 6.12535 20.384H26.488C26.488 20.384 29.3312 20.3337 29.9064 18.319L30.4511 13.5768C31.6932 13.2288 32.6134 12.0868 32.6134 10.7166Z" fill="#FFC431"/>
<path d="M2.94382 6.18842C4.86809 6.18842 6.5951 7.47483 7.18689 9.33097L7.83086 10.7811C9.0768 10.3261 13.5566 9.88781 16.387 9.88781C19.1398 9.88781 23.5559 10.2951 24.7777 10.7463L25.5095 9.08477C26.1726 7.3498 27.8385 6.18842 29.6711 6.18842C29.806 6.18842 29.9346 6.21678 30.0682 6.22838C30.0682 6.22064 30.0695 6.21162 30.0695 6.20389C30.0695 2.77776 27.3281 0 23.9441 0C23.519 0 9.09717 0 8.6721 0C5.28934 0 2.54674 2.77647 2.54674 6.20389C2.54674 6.21162 2.54802 6.22064 2.54802 6.22838C2.68038 6.21807 2.80891 6.18842 2.94382 6.18842Z" fill="#FFC431"/>
</svg>
