<svg width="20" height="19" viewBox="0 0 20 19" fill="none" xmlns="http://www.w3.org/2000/svg">
<path d="M8.93811 0.780078C9.23746 -0.141232 10.5409 -0.141233 10.8402 0.780078L12.3837 5.53043C12.5176 5.94246 12.9015 6.22142 13.3348 6.22142L18.3296 6.22142C19.2983 6.22142 19.7011 7.46103 18.9174 8.03043L14.8765 10.9663C14.526 11.221 14.3793 11.6723 14.5132 12.0843L16.0567 16.8347C16.356 17.756 15.3016 18.5221 14.5178 17.9527L10.477 15.0169C10.1265 14.7622 9.65187 14.7622 9.30138 15.0169L5.26049 17.9527C4.47678 18.5221 3.42229 17.756 3.72165 16.8347L5.26513 12.0843C5.399 11.6723 5.25235 11.221 4.90186 10.9663L0.860965 8.03043C0.0772519 7.46103 0.480026 6.22142 1.44875 6.22142L6.44357 6.22142C6.8768 6.22142 7.26075 5.94246 7.39463 5.53043L8.93811 0.780078Z" fill="#FFC12F"/>
</svg>
