<svg width="15" height="14" viewBox="0 0 15 14" fill="none" xmlns="http://www.w3.org/2000/svg">
<path d="M6.62365 0.784959C6.923 -0.136352 8.22641 -0.136349 8.52576 0.784961L9.48308 3.73127C9.61695 4.14329 10.0009 4.42225 10.4341 4.42225H13.5321C14.5008 4.42225 14.9036 5.66186 14.1198 6.23127L11.6136 8.05218C11.2631 8.30683 11.1164 8.75819 11.2503 9.17022L12.2076 12.1165C12.507 13.0378 11.4525 13.804 10.6688 13.2346L8.16249 11.4136C7.812 11.159 7.33741 11.159 6.98692 11.4136L4.48064 13.2346C3.69693 13.804 2.64245 13.0378 2.9418 12.1165L3.89912 9.17021C4.03299 8.75819 3.88633 8.30683 3.53584 8.05218L1.02957 6.23126C0.245852 5.66186 0.64863 4.42225 1.61735 4.42225H4.71528C5.14851 4.42225 5.53246 4.14329 5.66634 3.73127L6.62365 0.784959Z" fill="#FFC12F"/>
</svg>
