<svg width="20" height="19" viewBox="0 0 20 19" fill="none" xmlns="http://www.w3.org/2000/svg">
<path d="M9.37024 0.780078C9.66959 -0.141232 10.973 -0.141233 11.2724 0.780078L12.8158 5.53043C12.9497 5.94246 13.3337 6.22142 13.7669 6.22142L18.7617 6.22142C19.7304 6.22142 20.1332 7.46103 19.3495 8.03043L15.3086 10.9663C14.9581 11.221 14.8115 11.6723 14.9453 12.0843L16.4888 16.8347C16.7882 17.756 15.7337 18.5221 14.95 17.9527L10.9091 15.0169C10.5586 14.7622 10.084 14.7622 9.73351 15.0169L5.69262 17.9527C4.9089 18.5221 3.85442 17.756 4.15378 16.8347L5.69726 12.0843C5.83113 11.6723 5.68448 11.221 5.33399 10.9663L1.29309 8.03043C0.509381 7.46103 0.912155 6.22142 1.88088 6.22142L6.8757 6.22142C7.30892 6.22142 7.69288 5.94246 7.82676 5.53043L9.37024 0.780078Z" fill="#D7D8D9"/>
</svg>
