<svg width="16" height="14" viewBox="0 0 16 14" fill="none" xmlns="http://www.w3.org/2000/svg">
<path d="M15.9171 0.5876C15.9313 0.500889 15.9229 0.411919 15.8927 0.329491C15.8625 0.247063 15.8114 0.174035 15.7447 0.117632C15.6779 0.0612298 15.5977 0.023408 15.512 0.00790934C15.4263 -0.0075893 15.3381 -0.000227628 15.2561 0.0292659L1.25589 5.07749C1.16361 5.11072 1.08303 5.17058 1.02416 5.24965C0.965287 5.32872 0.930722 5.42351 0.924756 5.52225C0.91879 5.62098 0.941687 5.71931 0.990602 5.80502C1.03952 5.89073 1.11229 5.96004 1.19989 6.00435L5.19994 8.02364C5.27877 8.06347 5.36663 8.08156 5.45461 8.07606C5.5426 8.07057 5.62758 8.04168 5.70094 7.99234L6.3655 7.5449C6.83716 7.22734 7.38689 7.82115 7.03396 8.26696C6.99072 8.32159 6.95919 8.3847 6.94138 8.45228C6.92356 8.51986 6.91985 8.59044 6.93047 8.65954C6.9411 8.72865 6.96583 8.79477 7.00309 8.85372C7.04036 8.91267 7.08935 8.96316 7.14696 9.00198L13.147 13.0406C13.2165 13.0872 13.2964 13.1155 13.3796 13.123C13.4627 13.1305 13.5463 13.1168 13.6228 13.0833C13.6994 13.0498 13.7664 12.9975 13.8178 12.9311C13.8692 12.8647 13.9033 12.7864 13.917 12.7033L15.9171 0.5876Z" fill="white"/>
</svg>
