<svg width="15" height="26" viewBox="0 0 15 26" fill="none" xmlns="http://www.w3.org/2000/svg">
<path d="M4.62988 22.7911H10.1299V17.6271H4.62988V22.7911ZM7.37988 25.4591C9.27388 25.4591 9.86288 24.4321 10.0469 23.7931H4.71288C4.89688 24.4331 5.48588 25.4591 7.37988 25.4591ZM7.37988 0.12607C5.52337 0.12607 3.74289 0.863568 2.43014 2.17632C1.11738 3.48908 0.379883 5.26956 0.379883 7.12607C0.379883 10.9861 4.32488 12.0631 4.60288 16.6261H5.87288C5.86488 16.6001 5.84988 16.5761 5.84488 16.5461L3.84488 5.54907C3.82607 5.43152 3.84963 5.31112 3.91138 5.20934C3.97312 5.10756 4.06903 5.03104 4.18198 4.99343C4.29492 4.95582 4.41756 4.95957 4.52799 5.00402C4.63843 5.04846 4.72948 5.13071 4.78488 5.23607L5.33788 6.34207L5.89088 5.23507C5.93255 5.15239 5.99636 5.08291 6.07519 5.03436C6.15403 4.98581 6.2448 4.9601 6.33738 4.9601C6.42997 4.9601 6.52074 4.98581 6.59957 5.03436C6.67841 5.08291 6.74221 5.15239 6.78388 5.23507L7.33688 6.34107L7.88988 5.23407C7.93102 5.15078 7.99464 5.08066 8.07354 5.03163C8.15244 4.9826 8.24349 4.95662 8.33638 4.95662C8.42928 4.95662 8.52032 4.9826 8.59922 5.03163C8.67813 5.08066 8.74174 5.15078 8.78288 5.23407L9.33688 6.34007L9.88988 5.23307C9.94471 5.12727 10.0355 5.04453 10.146 4.99976C10.2564 4.95499 10.3792 4.95114 10.4922 4.98889C10.6053 5.02665 10.7011 5.10353 10.7624 5.20569C10.8238 5.30784 10.8467 5.42856 10.8269 5.54607L8.82688 16.5441C8.82288 16.5741 8.80688 16.5971 8.79888 16.6221H10.1539C10.4319 12.0601 14.3779 10.9821 14.3779 7.12207C14.3779 3.25807 11.2439 0.12207 7.37788 0.12207L7.37988 0.12607ZM9.33788 7.95907C9.24528 7.95944 9.15443 7.93387 9.07561 7.88527C8.99679 7.83667 8.93314 7.76697 8.89188 7.68407L8.33788 6.57907L7.78488 7.68507C7.74283 7.76768 7.67876 7.83706 7.59976 7.88555C7.52075 7.93405 7.42989 7.95976 7.33719 7.95987C7.24449 7.95997 7.15357 7.93446 7.07446 7.88614C6.99534 7.83782 6.93112 7.76859 6.88888 7.68607L6.33588 6.58107L5.78288 7.68707C5.74176 7.77016 5.67818 7.84006 5.59935 7.88884C5.52052 7.93763 5.42959 7.96334 5.33688 7.96307H5.29988L6.75488 15.9631H7.92188L9.37588 7.96307H9.33788V7.95907Z" fill="#FFC431"/>
</svg>
