<svg width="19" height="15" viewBox="0 0 19 15" fill="none" xmlns="http://www.w3.org/2000/svg">
<path d="M16.0359 2.92702C16.8108 2.45138 17.3238 1.80218 17.575 0.97653C16.8674 1.35925 16.108 1.63736 15.3206 1.80218C14.6464 1.07722 13.793 0.708984 12.7698 0.708984C11.7696 0.708984 10.9248 1.05996 10.2353 1.74272C9.90231 2.06695 9.63905 2.45574 9.46163 2.88529C9.2842 3.31483 9.19635 3.77608 9.20346 4.24077C9.20346 4.53708 9.24086 4.80175 9.31565 5.02615C6.36594 4.92546 3.92448 3.70185 2.00084 1.34668C1.6748 1.92301 1.51178 2.50988 1.51178 3.11689C1.51178 4.36448 2.03824 5.35315 3.08924 6.07906C2.4899 6.02824 1.96152 5.87673 1.51178 5.62836C1.51178 6.51922 1.77357 7.26336 2.29811 7.91832C2.80765 8.55653 3.52573 8.99485 4.32627 9.15631C4.02708 9.23303 3.71159 9.26947 3.38747 9.26947C3.08828 9.26947 2.87635 9.24454 2.75073 9.18988C2.97129 9.9158 3.38747 10.5046 3.98873 10.9553C4.58312 11.4066 5.30614 11.6562 6.05237 11.6678C4.77506 12.6699 3.31459 13.1657 1.66233 13.1657C1.25766 13.1657 0.970932 13.1599 0.797363 13.1292C2.42469 14.186 4.23613 14.7105 6.24032 14.7105C8.2915 14.7105 10.1039 14.1908 11.6814 13.1513C13.2588 12.1175 14.423 10.8421 15.171 9.34043C15.9106 7.88735 16.2958 6.27979 16.2948 4.64928V4.2005C16.9843 3.69218 17.5811 3.06905 18.0593 2.35837C17.4136 2.63824 16.7329 2.82953 16.0359 2.92702Z" fill="#007879"/>
</svg>
