<svg width="20" height="13" viewBox="0 0 20 13" fill="none" xmlns="http://www.w3.org/2000/svg">
<path d="M19.3271 1.70326C19.461 1.25076 19.3271 0.917725 18.6827 0.917725H16.5505C16.0075 0.917725 15.7578 1.2037 15.6238 1.52226C15.6238 1.52226 14.5378 4.16847 13.003 5.88434C12.507 6.38028 12.279 6.53956 12.0075 6.53956C11.8735 6.53956 11.6672 6.38028 11.6672 5.92778V1.70326C11.6672 1.16026 11.5151 0.917725 11.0663 0.917725H7.71417C7.37389 0.917725 7.17117 1.17112 7.17117 1.40642C7.17117 1.92046 7.9386 2.03992 8.01824 3.48791V6.63006C8.01824 7.31785 7.89516 7.44455 7.62367 7.44455C6.89967 7.44455 5.14036 4.78748 4.0978 1.7467C3.88785 1.15664 3.68151 0.917725 3.13489 0.917725H1.00272C0.394564 0.917725 0.271484 1.2037 0.271484 1.52226C0.271484 2.08698 0.995481 4.89246 3.64169 8.59933C5.40462 11.1297 7.88792 12.5017 10.1468 12.5017C11.5043 12.5017 11.6708 12.1976 11.6708 11.6727C11.6708 9.25454 11.5477 9.02648 12.2283 9.02648C12.5432 9.02648 13.0862 9.18576 14.3532 10.4057C15.8012 11.8537 16.0401 12.5017 16.851 12.5017H18.9832C19.5913 12.5017 19.899 12.1976 19.7216 11.5967C19.3162 10.3333 16.5759 7.73415 16.4528 7.56039C16.1379 7.15495 16.2284 6.97395 16.4528 6.61196C16.4564 6.60834 19.0592 2.94491 19.3271 1.70326Z" fill="#007879"/>
</svg>
