<svg width="16" height="17" viewBox="0 0 16 17" fill="none" xmlns="http://www.w3.org/2000/svg">
<path d="M7.92482 0.556152C12.0671 0.556152 15.4248 4.13135 15.4248 8.54185C15.4248 12.9524 12.0671 16.5275 7.92482 16.5275C6.85884 16.5294 5.80795 16.2882 4.84174 15.8239C4.39036 15.607 3.87768 15.5253 3.39678 15.665C2.08441 16.0463 0.854999 14.8562 1.19342 13.5321L1.25537 13.2897C1.37518 12.821 1.30343 12.3281 1.11112 11.8842C0.658391 10.8391 0.423001 9.6988 0.424815 8.54185C0.424815 4.13135 3.78257 0.556152 7.92482 0.556152ZM5.3682 4.78791C5.36844 4.78817 5.36827 4.7886 5.36791 4.78861L5.21881 4.79496C5.12171 4.80126 5.0268 4.82842 4.93982 4.87482C4.85846 4.92387 4.78419 4.9852 4.71932 5.05689C4.62932 5.14713 4.57832 5.22539 4.52357 5.30125C4.24616 5.68529 4.09679 6.15677 4.09907 6.64125C4.10057 7.03255 4.19657 7.41347 4.34657 7.76963C4.65332 8.48994 5.15807 9.25258 5.82407 9.95931C5.98457 10.1294 6.14207 10.3003 6.31157 10.4592C7.13911 11.235 8.12525 11.7945 9.19156 12.0931L9.61757 12.1626C9.75632 12.1706 9.89507 12.1594 10.0346 12.1522C10.253 12.1402 10.4663 12.0772 10.6593 11.9677C10.75 11.918 10.8387 11.8641 10.9252 11.8064C10.9395 11.7969 10.9536 11.7871 10.9674 11.7769C10.9831 11.7652 11.0076 11.7465 11.0403 11.7202C11.1416 11.6403 11.2038 11.5836 11.2878 11.4902C11.3501 11.4215 11.4041 11.3408 11.4453 11.249C11.5038 11.1188 11.5623 10.8705 11.5863 10.6637C11.6043 10.5055 11.5991 10.4193 11.5968 10.3658C11.5938 10.2803 11.5271 10.1917 11.4543 10.1542L11.043 9.95778C11.0262 9.94975 11.0097 9.94197 10.9928 9.93412C10.8696 9.87687 10.3189 9.62062 9.96632 9.44983C9.92456 9.43041 9.87982 9.41932 9.83432 9.41708C9.783 9.41147 9.73115 9.41762 9.68225 9.43511C9.59293 9.46707 9.5077 9.56233 9.44768 9.6358C9.36543 9.73649 9.2181 9.92199 8.95457 10.262C8.92344 10.3065 8.88057 10.3402 8.83142 10.3586C8.78226 10.3771 8.72905 10.3796 8.67857 10.3658C8.62971 10.3518 8.58184 10.3342 8.53531 10.3131C8.44231 10.2716 8.41006 10.2556 8.34631 10.2268C7.91587 10.0268 7.51733 9.7566 7.16507 9.42587C7.07057 9.33803 6.98282 9.2422 6.89282 9.14956C6.59775 8.84869 6.34061 8.50832 6.12781 8.13698L6.08356 8.06111C6.05178 8.01014 6.02608 7.95514 6.00707 7.89741C5.99647 7.85377 6.00007 7.81333 6.00878 7.77975C6.02625 7.7124 6.07549 7.65949 6.12024 7.60622C6.18097 7.53392 6.26836 7.42819 6.31982 7.35837C6.40232 7.24657 6.47206 7.13797 6.51707 7.0605C6.60557 6.90878 6.63332 6.75305 6.58682 6.63247C6.37682 6.08625 6.15932 5.54242 5.93582 5.00259C5.89157 4.89558 5.76032 4.81892 5.64107 4.80375C5.60057 4.79895 5.56007 4.79416 5.51957 4.79097C5.41885 4.78564 5.31792 4.78671 5.21732 4.79416L5.36788 4.78778C5.368 4.78778 5.36811 4.78782 5.3682 4.78791Z" fill="white"/>
</svg>
