<svg width="30" height="23" viewBox="0 0 30 23" fill="none" xmlns="http://www.w3.org/2000/svg">
<path d="M14.8881 15.7316C12.9272 15.7316 11.332 17.331 11.332 19.2971C11.332 21.2631 12.9273 22.8625 14.8881 22.8625C16.849 22.8625 18.4443 21.2631 18.4443 19.2971C18.4443 17.331 16.849 15.7316 14.8881 15.7316Z" fill="#FFC431"/>
<path d="M23.4696 11.6379C18.7377 6.8935 11.0382 6.8935 6.30629 11.6379C5.05034 12.8971 5.05034 14.9461 6.30629 16.2053C6.91472 16.8154 7.72368 17.1514 8.58405 17.1514C9.44447 17.1514 10.2534 16.8154 10.8617 16.2054C11.9372 15.1271 13.367 14.5333 14.888 14.5333C16.4089 14.5333 17.8387 15.1271 18.9142 16.2053C19.5226 16.8153 20.3315 17.1513 21.1919 17.1513C22.0523 17.1513 22.8613 16.8154 23.4697 16.2053C24.7256 14.9461 24.7255 12.8971 23.4696 11.6379Z" fill="#FFC431"/>
<path d="M28.8326 5.92989C25.1079 2.19541 20.1556 0.138672 14.8881 0.138672C9.62048 0.138672 4.66822 2.19541 0.943531 5.92989C0.33504 6.53992 0 7.35094 0 8.21362C0 9.07631 0.33504 9.88739 0.943531 10.4974C1.5715 11.127 2.39622 11.4418 3.22123 11.4417C4.046 11.4417 4.87107 11.1269 5.49899 10.4974C8.00262 7.98715 11.3371 6.60464 14.8881 6.60464C18.4391 6.60464 21.7736 7.98704 24.2772 10.4974C24.8856 11.1073 25.6946 11.4433 26.5549 11.4433C27.4154 11.4433 28.2243 11.1073 28.8326 10.4974C29.441 9.88739 29.7761 9.07637 29.7761 8.21362C29.7761 7.35094 29.4411 6.53992 28.8326 5.92989Z" fill="#FFC431"/>
</svg>
